<svg xmlns="http://www.w3.org/2000/svg" data-name="Layer 1" viewBox="0 0 1024 1280" x="0px" y="0px"><title>icon-01</title><path fill="#000000" d="M537 233.515v653.372c81.399-55.56 176.957-79.492 278.831-79.492 41.503 0 80.715 4.05 115.783 10.56 4.051-3.993 5.404-7.95 5.404-12.571V492.881c0-14.36 11.637-26 25.991-26s25.991 11.64 25.991 26v312.503c0 34.676-24.196 64.619-56.833 64.619-2.898 0-5.756-0.228-9.327-0.8-32.806-6.08-68.901-9.808-107.009-9.808-99.02 0-190.34 24.71-265.494 81.964C539.527 949.55 526.776 954 513.66 954c-15.453 0-28.181-4.437-39.127-12.686-75.053-57.209-166.36-81.92-265.4-81.92-38.07 0-74.205 3.733-107.687 9.929-2.858 0.45-5.767 0.68-8.614 0.68-32.665 0-56.833-29.931-56.833-64.619V156.129c0-27.881 15.611-53.362 40.317-61.833C124.072 77.852 171.257 70 217.59 70c83.187 0 159.486 24.735 227.212 65.832 23.633 14.341 44.55 29.714 62.579 45.137a447.235 447.235 0 0 1 5.103 4.431 447.307 447.307 0 0 1 5.104-4.432c18.032-15.422 38.95-30.795 62.585-45.136C647.903 94.735 724.206 70 807.393 70c46.367 0 93.552 7.852 141.241 24.285 24.745 8.485 40.394 33.985 40.366 61.844v111.419c0 14.36-11.637 26-25.99 26-14.355 0-25.992-11.64-25.992-26V156.104c0.007-6.934-3.021-11.868-5.277-12.642C889.48 128.9 848.017 122 807.393 122c-72.854 0-140.139 21.812-200.262 58.292-21.113 12.811-39.78 26.53-55.762 40.2-5.535 4.734-10.319 9.1-14.32 12.977l-0.049 0.046z m-51 652.048V231.63a325.52 325.52 0 0 0-12.402-11.14c-15.98-13.669-34.645-27.387-55.756-40.198C357.725 143.812 290.443 122 217.59 122c-40.59 0-82.059 6.9-124.386 21.475-2.2 0.755-5.222 5.686-5.222 12.654v649.255c0 4.63 1.35 8.59 3.36 11.078 37.147-5.02 76.366-9.067 117.792-9.067 101.122 0 195.996 23.57 276.866 78.168z"/><text x="0" y="1039" fill="#000000" font-size="5px" font-weight="bold" font-family="'Helvetica Neue', Helvetica, Arial-Unicode, Arial, Sans-serif">Created by Clelia Colombo</text><text x="0" y="1044" fill="#000000" font-size="5px" font-weight="bold" font-family="'Helvetica Neue', Helvetica, Arial-Unicode, Arial, Sans-serif">from the Noun Project</text></svg>