<svg xmlns="http://www.w3.org/2000/svg" data-name="Layer 1" viewBox="0 0 1024 1280" x="0px" y="0px"><title>icon-01</title><path fill="#000000" d="M511.5 543C368.734 543 253 427.042 253 284S368.734 25 511.5 25C654.266 25 770 140.958 770 284S654.266 543 511.5 543z m0-64.75c107.074 0 193.875-86.969 193.875-194.25S618.575 89.75 511.5 89.75c-107.074 0-193.875 86.969-193.875 194.25s86.8 194.25 193.875 194.25zM512 996c-314.247 0-451-35.665-451-174.016C61 661.13 283.923 478 512 478s451 183.13 451 343.984C963 960.334 826.247 996 512 996z m0-64.75c272.641 0 386.571-29.713 386.571-109.266 0-121.889-191.535-279.234-386.571-279.234-195.036 0-386.571 157.345-386.571 279.234 0 79.553 113.93 109.266 386.571 109.266z"/><text x="0" y="1039" fill="#000000" font-size="5px" font-weight="bold" font-family="'Helvetica Neue', Helvetica, Arial-Unicode, Arial, Sans-serif">Created by Clelia Colombo</text><text x="0" y="1044" fill="#000000" font-size="5px" font-weight="bold" font-family="'Helvetica Neue', Helvetica, Arial-Unicode, Arial, Sans-serif">from the Noun Project</text></svg>